<svg aria-hidden="true" style="position: absolute; width: 0; height: 0; overflow: hidden;" version="1.1" xmlns="http://www.w3.org/2000/svg" xmlns:xlink="http://www.w3.org/1999/xlink">
<defs>
<symbol id="icon-refresh" viewBox="0 0 32 32">
<title>refresh</title>
<path d="M23.5 18c0 4.418-3.582 8-8 8s-8-3.582-8-8c0-4.085 3.917-6.595 8-6.951v4.951l10-7v-1l-10-8v5.042c-7.347 0.432-14 5.561-14 12.958 0 7.732 6.268 14 14 14s14-6.268 14-14h-6z"></path>
</symbol>
<symbol id="icon-paper-plane" viewBox="0 0 28 28">
<title>paper-plane</title>
<path d="M27.563 0.172c0.328 0.234 0.484 0.609 0.422 1l-4 24c-0.047 0.297-0.234 0.547-0.5 0.703-0.141 0.078-0.313 0.125-0.484 0.125-0.125 0-0.25-0.031-0.375-0.078l-7.078-2.891-3.781 4.609c-0.187 0.234-0.469 0.359-0.766 0.359-0.109 0-0.234-0.016-0.344-0.063-0.391-0.141-0.656-0.516-0.656-0.938v-5.453l13.5-16.547-16.703 14.453-6.172-2.531c-0.359-0.141-0.594-0.469-0.625-0.859-0.016-0.375 0.172-0.734 0.5-0.922l26-15c0.156-0.094 0.328-0.141 0.5-0.141 0.203 0 0.406 0.063 0.562 0.172z"></path>
</symbol>
<symbol id="icon-bomb" viewBox="0 0 28 28">
<title>bomb</title>
<path d="M8.922 9.203c-0.203-0.516-0.781-0.75-1.297-0.547-2.25 0.906-4.062 2.719-4.969 4.969-0.203 0.516 0.031 1.094 0.547 1.297 0.125 0.047 0.25 0.078 0.375 0.078 0.406 0 0.766-0.234 0.938-0.625 0.703-1.75 2.109-3.156 3.859-3.859 0.516-0.219 0.766-0.797 0.547-1.313zM23.641 3.641l0.719 0.719-3.813 3.797 1.062 1.062c0.391 0.391 0.391 1.031 0 1.422l-1 1c0.875 1.578 1.391 3.406 1.391 5.359 0 6.078-4.922 11-11 11s-11-4.922-11-11 4.922-11 11-11c1.953 0 3.781 0.516 5.359 1.391l1-1c0.391-0.391 1.031-0.391 1.422 0l1.062 1.062zM23.766 2.766c-0.094 0.094-0.219 0.156-0.344 0.156-0.141 0-0.266-0.063-0.359-0.156l-1.422-1.406c-0.187-0.203-0.187-0.516 0-0.719 0.203-0.187 0.516-0.187 0.719 0l1.406 1.422c0.203 0.187 0.203 0.516 0 0.703zM27.359 6.359c-0.109 0.094-0.234 0.141-0.359 0.141s-0.25-0.047-0.359-0.141l-1.406-1.422c-0.203-0.187-0.203-0.516 0-0.703 0.187-0.203 0.516-0.203 0.703 0l1.422 1.406c0.187 0.203 0.187 0.516 0 0.719zM28 3.5c0 0.281-0.219 0.5-0.5 0.5h-1.5c-0.281 0-0.5-0.219-0.5-0.5s0.219-0.5 0.5-0.5h1.5c0.281 0 0.5 0.219 0.5 0.5zM25 0.5v1.5c0 0.281-0.219 0.5-0.5 0.5s-0.5-0.219-0.5-0.5v-1.5c0-0.281 0.219-0.5 0.5-0.5s0.5 0.219 0.5 0.5zM27.359 1.359l-1.422 1.406c-0.094 0.094-0.219 0.156-0.344 0.156-0.141 0-0.266-0.063-0.359-0.156-0.203-0.187-0.203-0.516 0-0.703l1.406-1.422c0.203-0.187 0.516-0.187 0.719 0 0.187 0.203 0.187 0.516 0 0.719z"></path>
</symbol>
<symbol id="icon-close" viewBox="0 0 20 20">
<title>close</title>
<path d="M10 8.586l-7.071-7.071-1.414 1.414 7.071 7.071-7.071 7.071 1.414 1.414 7.071-7.071 7.071 7.071 1.414-1.414-7.071-7.071 7.071-7.071-1.414-1.414-7.071 7.071z"></path>
</symbol>
<symbol id="icon-information-outline" viewBox="0 0 20 20">
<title>information-outline</title>
<path d="M2.93 17.070c-1.884-1.821-3.053-4.37-3.053-7.193 0-5.523 4.477-10 10-10 2.823 0 5.372 1.169 7.19 3.050l0.003 0.003c1.737 1.796 2.807 4.247 2.807 6.947 0 5.523-4.477 10-10 10-2.7 0-5.151-1.070-6.95-2.81l0.003 0.003zM15.66 15.66c1.449-1.449 2.344-3.45 2.344-5.66 0-4.421-3.584-8.004-8.004-8.004-2.21 0-4.211 0.896-5.66 2.344v0c-1.449 1.449-2.344 3.45-2.344 5.66 0 4.421 3.584 8.004 8.004 8.004 2.21 0 4.211-0.896 5.66-2.344v0zM9 11v-2h2v6h-2v-4zM9 5h2v2h-2v-2z"></path>
</symbol>
<symbol id="icon-scissors" viewBox="0 0 20 20">
<title>scissors</title>
<path d="M8.38 5.59c0-2.038-1.652-3.69-3.69-3.69s-3.69 1.652-3.69 3.69c0 2.038 1.652 3.69 3.69 3.69 0.96 0 1.826-0.376 2.483-0.976l1.827 1.687 0.012 0.009-0.004 0.003-1.836 1.693c-0.656-0.6-1.522-0.976-2.482-0.976-2.038 0-3.69 1.652-3.69 3.69s1.652 3.69 3.69 3.69 3.69-1.652 3.69-3.69c0-0.297-0.044-0.582-0.111-0.858l2.844-1.991 4.127 3.065c2.212 1.549 3.76-0.663 3.76-0.663l-10.731-7.515c0.066-0.276 0.111-0.561 0.111-0.858zM4.69 7.39c-0.994 0-1.8-0.806-1.8-1.8s0.806-1.8 1.8-1.8 1.8 0.806 1.8 1.8-0.806 1.8-1.8 1.8zM4.69 16.21c-0.994 0-1.8-0.806-1.8-1.8s0.806-1.8 1.8-1.8 1.8 0.806 1.8 1.8-0.806 1.8-1.8 1.8zM19 6.038c0 0-1.548-2.212-3.76-0.663l-3.205 2.235 2.354 1.648 4.611-3.22z"></path>
</symbol>
<symbol id="icon-rock-n-roll" viewBox="0 0 32 32">
<title>rock-n-roll</title>
<path d="M19 14v-1.495c0-0.831-0.666-1.505-1.5-1.505-0.828 0-1.5 0.668-1.5 1.505v2.495h-1v-9.495c0-0.831-0.666-1.505-1.5-1.505-0.828 0-1.5 0.667-1.5 1.505v9.752c-2.010-2.193-4.648-4.587-5.754-3.475-1.087 1.093 1.557 4.107 5.469 10.689 0.46 0.775 0.953 1.487 1.496 2.117 1.338 2.054 3.655 3.413 6.289 3.413 4.142 0 7.5-3.358 7.5-7.5v-12.009c0-0.824-0.666-1.491-1.5-1.491-0.828 0-1.5 0.663-1.5 1.491v6.509h-1v-1.495c0-0.831-0.666-1.505-1.5-1.505-0.828 0-1.5 0.668-1.5 1.505v0.495h-1z"></path>
</symbol>
</defs>
</svg>
